<svg width="51" height="51" viewBox="0 0 51 51" fill="none" xmlns="http://www.w3.org/2000/svg">
<circle cx="25.5" cy="25.5" r="25.5" fill="#1D2022"/>
<g filter="url(#filter0_di_1161_955)">
<path d="M11.6123 18.5826C11.8324 16.9484 11.9424 16.1314 12.5002 15.6381C13.0579 15.1448 13.8823 15.1355 15.531 15.1167L35.7245 14.8871C37.8768 14.8627 38.953 14.8504 39.559 15.5357C40.1651 16.221 40.0215 17.2876 39.7342 19.4208L37.9567 32.6185C37.7018 34.5109 37.5744 35.4571 36.9058 35.9598C36.2371 36.4624 35.2928 36.322 33.4041 36.0411L13.6375 33.1014C11.7957 32.8274 10.8748 32.6905 10.3819 32.0347C9.88888 31.379 10.0131 30.4563 10.2617 28.611L11.6123 18.5826Z" fill="#2D4D7E"/>
</g>
<path d="M15.0507 18.9576C15.0536 18.9267 15.055 18.9112 15.057 18.898C15.0921 18.6586 15.2936 18.4787 15.5354 18.4708C15.5488 18.4704 15.5643 18.4707 15.5954 18.4714L20.9113 18.583C21.0937 18.5868 21.1849 18.5888 21.2566 18.6126C21.4285 18.6698 21.5561 18.8156 21.5899 18.9936C21.6041 19.0679 21.5939 19.1585 21.5734 19.3397C21.5552 19.5013 21.5461 19.5821 21.5197 19.6466C21.4564 19.8008 21.3205 19.9133 21.1572 19.9467C21.0889 19.9606 21.0078 19.9545 20.8457 19.9422L15.5437 19.5411C15.5102 19.5385 15.4934 19.5373 15.4794 19.5354C15.2242 19.5015 15.0364 19.2793 15.0456 19.022C15.0461 19.0078 15.0477 18.9911 15.0507 18.9576Z" fill="#4AC8FF"/>
<path d="M23.1436 29.6833C23.2021 29.2964 23.2314 29.103 23.3576 28.9845C23.3778 28.9655 23.3997 28.9482 23.4228 28.9328C23.5669 28.8368 23.7619 28.8523 24.1519 28.8832L33.7157 29.641C34.2263 29.6814 34.4817 29.7016 34.6171 29.8758C34.7524 30.05 34.709 30.3024 34.6222 30.8073L34.5524 31.2134C34.4752 31.6626 34.4365 31.8872 34.2739 32.0067C34.1113 32.1261 33.8854 32.0957 33.4337 32.035L23.9515 30.7607C23.5314 30.7042 23.3213 30.6759 23.1983 30.539C23.1786 30.5171 23.1609 30.4935 23.1454 30.4685C23.0484 30.3121 23.0801 30.1025 23.1436 29.6833Z" fill="#4AC8FF"/>
<defs>
<filter id="filter0_di_1161_955" x="6.04395" y="14.8789" width="37.9375" height="29.416" filterUnits="userSpaceOnUse" color-interpolation-filters="sRGB">
<feFlood flood-opacity="0" result="BackgroundImageFix"/>
<feColorMatrix in="SourceAlpha" type="matrix" values="0 0 0 0 0 0 0 0 0 0 0 0 0 0 0 0 0 0 127 0" result="hardAlpha"/>
<feOffset dy="4"/>
<feGaussianBlur stdDeviation="2"/>
<feComposite in2="hardAlpha" operator="out"/>
<feColorMatrix type="matrix" values="0 0 0 0 0 0 0 0 0 0 0 0 0 0 0 0 0 0 0.35 0"/>
<feBlend mode="normal" in2="BackgroundImageFix" result="effect1_dropShadow_1161_955"/>
<feBlend mode="normal" in="SourceGraphic" in2="effect1_dropShadow_1161_955" result="shape"/>
<feColorMatrix in="SourceAlpha" type="matrix" values="0 0 0 0 0 0 0 0 0 0 0 0 0 0 0 0 0 0 127 0" result="hardAlpha"/>
<feOffset dx="-0.5" dy="-0.8"/>
<feComposite in2="hardAlpha" operator="arithmetic" k2="-1" k3="1"/>
<feColorMatrix type="matrix" values="0 0 0 0 0 0 0 0 0 0 0 0 0 0 0 0 0 0 0.25 0"/>
<feBlend mode="normal" in2="shape" result="effect2_innerShadow_1161_955"/>
</filter>
</defs>
</svg>
