<svg width="51" height="51" viewBox="0 0 51 51" fill="none" xmlns="http://www.w3.org/2000/svg">
<circle cx="25.5" cy="25.5" r="25.5" fill="#1D2022"/>
<g filter="url(#filter0_di_1161_960)">
<path fill-rule="evenodd" clip-rule="evenodd" d="M35.4863 26.1069L30.0129 22.6419L33.8786 14.1726C34.501 12.8071 32.9453 11.4821 31.6975 12.3127L16.8998 22.1591C16.6929 22.2967 16.5237 22.4838 16.4076 22.7034C16.2915 22.9231 16.2321 23.1682 16.2348 23.4166C16.2375 23.6651 16.3023 23.9089 16.4233 24.1259C16.5442 24.3429 16.7175 24.5262 16.9273 24.6593L22.3995 28.1239L18.5363 36.5938C17.9117 37.9575 19.4673 39.2825 20.7161 38.4535L35.5157 28.6048C36.4137 28.0074 36.3978 26.6829 35.4863 26.1069Z" fill="#FACC6D"/>
</g>
<defs>
<filter id="filter0_di_1161_960" x="12.2344" y="12.0547" width="27.9453" height="34.6562" filterUnits="userSpaceOnUse" color-interpolation-filters="sRGB">
<feFlood flood-opacity="0" result="BackgroundImageFix"/>
<feColorMatrix in="SourceAlpha" type="matrix" values="0 0 0 0 0 0 0 0 0 0 0 0 0 0 0 0 0 0 127 0" result="hardAlpha"/>
<feOffset dy="4"/>
<feGaussianBlur stdDeviation="2"/>
<feComposite in2="hardAlpha" operator="out"/>
<feColorMatrix type="matrix" values="0 0 0 0 0 0 0 0 0 0 0 0 0 0 0 0 0 0 0.36 0"/>
<feBlend mode="normal" in2="BackgroundImageFix" result="effect1_dropShadow_1161_960"/>
<feBlend mode="normal" in="SourceGraphic" in2="effect1_dropShadow_1161_960" result="shape"/>
<feColorMatrix in="SourceAlpha" type="matrix" values="0 0 0 0 0 0 0 0 0 0 0 0 0 0 0 0 0 0 127 0" result="hardAlpha"/>
<feOffset dx="-1" dy="-1"/>
<feComposite in2="hardAlpha" operator="arithmetic" k2="-1" k3="1"/>
<feColorMatrix type="matrix" values="0 0 0 0 0.641667 0 0 0 0 0.231 0 0 0 0 0 0 0 0 0.31 0"/>
<feBlend mode="normal" in2="shape" result="effect2_innerShadow_1161_960"/>
</filter>
</defs>
</svg>
