<svg width="51" height="51" viewBox="0 0 51 51" fill="none" xmlns="http://www.w3.org/2000/svg">
<circle cx="25.5" cy="25.5" r="25.5" fill="#1D2022"/>
<g filter="url(#filter0_d_1327_509)">
<ellipse cx="24.5" cy="25.2442" rx="14.3987" ry="8.49353" transform="rotate(-21.2908 24.5 25.2442)" fill="#FFD53F"/>
</g>
<g filter="url(#filter1_i_1327_509)">
<path fill-rule="evenodd" clip-rule="evenodd" d="M20.3824 20.7254C20.9168 20.8745 21.2291 21.4286 21.08 21.963L19.699 26.1034L22.4066 23.9829C23.2219 23.3444 24.4223 23.8329 24.56 24.8593L25.0352 28.4009L31.3505 22.5304C31.7569 22.1526 32.3925 22.1758 32.7703 22.5822C33.148 22.9886 33.1248 23.6242 32.7184 24.0019L25.4554 30.7533C24.6596 31.4931 23.3605 31.0273 23.216 29.9504L22.7243 26.286L19.3315 28.9432C18.3131 29.7407 16.8678 28.7745 17.2155 27.5287L19.1448 21.423C19.2939 20.8886 19.848 20.5763 20.3824 20.7254Z" fill="#CB9D3F"/>
</g>
<defs>
<filter id="filter0_d_1327_509" x="10.7314" y="15.7578" width="28.2068" height="21.6515" filterUnits="userSpaceOnUse" color-interpolation-filters="sRGB">
<feFlood flood-opacity="0" result="BackgroundImageFix"/>
<feColorMatrix in="SourceAlpha" type="matrix" values="0 0 0 0 0 0 0 0 0 0 0 0 0 0 0 0 0 0 127 0" result="hardAlpha"/>
<feOffset dx="0.669707" dy="2.67883"/>
<feComposite in2="hardAlpha" operator="out"/>
<feColorMatrix type="matrix" values="0 0 0 0 0.4 0 0 0 0 0.143902 0 0 0 0 0 0 0 0 1 0"/>
<feBlend mode="normal" in2="BackgroundImageFix" result="effect1_dropShadow_1327_509"/>
<feBlend mode="normal" in="SourceGraphic" in2="effect1_dropShadow_1327_509" result="shape"/>
</filter>
<filter id="filter1_i_1327_509" x="17.1631" y="20.6875" width="15.876" height="10.4258" filterUnits="userSpaceOnUse" color-interpolation-filters="sRGB">
<feFlood flood-opacity="0" result="BackgroundImageFix"/>
<feBlend mode="normal" in="SourceGraphic" in2="BackgroundImageFix" result="shape"/>
<feColorMatrix in="SourceAlpha" type="matrix" values="0 0 0 0 0 0 0 0 0 0 0 0 0 0 0 0 0 0 127 0" result="hardAlpha"/>
<feOffset dy="1.33941"/>
<feComposite in2="hardAlpha" operator="arithmetic" k2="-1" k3="1"/>
<feColorMatrix type="matrix" values="0 0 0 0 0.4 0 0 0 0 0.145098 0 0 0 0 0 0 0 0 1 0"/>
<feBlend mode="normal" in2="shape" result="effect1_innerShadow_1327_509"/>
</filter>
</defs>
</svg>
