<svg width="60" height="60" viewBox="0 0 60 60" fill="none" xmlns="http://www.w3.org/2000/svg">
<rect width="60" height="60" rx="10" fill="#362225"/>
<path d="M26.659 32.6173L25.0461 12H34.9539L33.341 32.6173H26.659ZM30.023 48C28.5791 48 27.381 47.5102 26.4286 46.5306C25.4762 45.551 25 44.3571 25 42.949C25 41.5102 25.4762 40.301 26.4286 39.3214C27.381 38.3418 28.5791 37.852 30.023 37.852C31.467 37.852 32.6498 38.3418 33.5714 39.3214C34.5238 40.301 35 41.5102 35 42.949C35 44.3571 34.5238 45.551 33.5714 46.5306C32.6498 47.5102 31.467 48 30.023 48Z" fill="#FF365A"/>
</svg>
