<svg width="240" height="240" viewBox="0 0 240 240" fill="none" xmlns="http://www.w3.org/2000/svg">
<rect width="240" height="240" fill="black"/>
<g filter="url(#filter0_iii_1396_994)">
<circle cx="66" cy="75" r="10" fill="#81F66E"/>
</g>
<g filter="url(#filter1_iii_1396_994)">
<circle cx="161" cy="75" r="10" fill="#46B4DB"/>
</g>
<g filter="url(#filter2_iii_1396_994)">
<path fill-rule="evenodd" clip-rule="evenodd" d="M157.764 91.503C152.967 91.364 148.741 94.8679 148.085 99.7299L148.576 99.7961C148.576 99.7961 148.576 99.7961 148.576 99.7961C148.085 99.73 148.085 99.7301 148.085 99.7302L148.085 99.7312L148.085 99.7359L148.082 99.7548L148.072 99.8308L148.031 100.13C147.996 100.393 147.943 100.78 147.876 101.274C147.741 102.262 147.548 103.679 147.312 105.392C146.84 108.82 146.2 113.428 145.524 118.157C144.848 122.892 144.14 127.719 143.534 131.594C143.23 133.536 142.958 135.199 142.732 136.476C142.528 137.625 142.408 138.186 142.374 138.345C142.365 138.387 142.362 138.401 142.366 138.39C142.142 139.172 141.914 140.078 141.661 141.079C140.964 143.846 140.084 147.336 138.626 150.918C138.032 152.377 137.456 153.534 136.937 154.399C136.228 153.459 135.42 152.128 134.588 150.392C132.283 145.586 130.802 139.828 130.427 136.822C130.376 136.418 130.319 135.944 130.254 135.408L130.254 135.407C129.715 130.946 128.659 122.208 126.733 114.262C125.669 109.874 124.184 105.032 122.013 101.082C120.184 97.7529 115.882 91.5001 108 91.5001C102.753 91.5001 98.5 95.7534 98.5 101C98.5 105.307 101.365 108.944 105.294 110.109C105.316 110.148 105.338 110.189 105.362 110.231C106.316 111.968 107.331 114.876 108.267 118.738C109.907 125.503 110.828 133.067 111.384 137.634C111.452 138.196 111.515 138.714 111.573 139.178C112.198 144.173 114.246 151.914 117.456 158.608C119.063 161.959 121.212 165.583 124.035 168.506C126.825 171.395 131.187 174.5 137 174.5C137.084 174.5 137.167 174.499 137.25 174.497C137.333 174.499 137.416 174.5 137.5 174.5C143.635 174.5 147.965 171 150.546 167.955C153.129 164.908 154.944 161.224 156.223 158.083C158.298 152.986 159.766 147.08 160.374 144.633L160.374 144.633L160.374 144.632C160.496 144.139 160.584 143.787 160.634 143.61C160.914 142.633 161.234 140.995 161.563 139.093C161.566 139.122 161.57 139.15 161.573 139.178C162.552 147.008 163.5 158.067 163.5 165C163.5 170.247 167.753 174.5 173 174.5C178.247 174.5 182.5 170.247 182.5 165C182.5 156.933 181.448 144.992 180.427 136.822C180.376 136.418 180.319 135.943 180.254 135.407C179.715 130.946 178.659 122.208 176.733 114.262C175.669 109.874 174.184 105.032 172.013 101.082C170.184 97.7529 165.882 91.5001 158 91.5001C157.921 91.5001 157.842 91.5011 157.764 91.503ZM104.717 109.249C104.718 109.24 104.77 109.29 104.868 109.426C104.765 109.326 104.716 109.258 104.717 109.249Z" fill="url(#paint0_linear_1396_994)"/>
<path fill-rule="evenodd" clip-rule="evenodd" d="M157.764 91.503C152.967 91.364 148.741 94.8679 148.085 99.7299L148.576 99.7961C148.576 99.7961 148.576 99.7961 148.576 99.7961C148.085 99.73 148.085 99.7301 148.085 99.7302L148.085 99.7312L148.085 99.7359L148.082 99.7548L148.072 99.8308L148.031 100.13C147.996 100.393 147.943 100.78 147.876 101.274C147.741 102.262 147.548 103.679 147.312 105.392C146.84 108.82 146.2 113.428 145.524 118.157C144.848 122.892 144.14 127.719 143.534 131.594C143.23 133.536 142.958 135.199 142.732 136.476C142.528 137.625 142.408 138.186 142.374 138.345C142.365 138.387 142.362 138.401 142.366 138.39C142.142 139.172 141.914 140.078 141.661 141.079C140.964 143.846 140.084 147.336 138.626 150.918C138.032 152.377 137.456 153.534 136.937 154.399C136.228 153.459 135.42 152.128 134.588 150.392C132.283 145.586 130.802 139.828 130.427 136.822C130.376 136.418 130.319 135.944 130.254 135.408L130.254 135.407C129.715 130.946 128.659 122.208 126.733 114.262C125.669 109.874 124.184 105.032 122.013 101.082C120.184 97.7529 115.882 91.5001 108 91.5001C102.753 91.5001 98.5 95.7534 98.5 101C98.5 105.307 101.365 108.944 105.294 110.109C105.316 110.148 105.338 110.189 105.362 110.231C106.316 111.968 107.331 114.876 108.267 118.738C109.907 125.503 110.828 133.067 111.384 137.634C111.452 138.196 111.515 138.714 111.573 139.178C112.198 144.173 114.246 151.914 117.456 158.608C119.063 161.959 121.212 165.583 124.035 168.506C126.825 171.395 131.187 174.5 137 174.5C137.084 174.5 137.167 174.499 137.25 174.497C137.333 174.499 137.416 174.5 137.5 174.5C143.635 174.5 147.965 171 150.546 167.955C153.129 164.908 154.944 161.224 156.223 158.083C158.298 152.986 159.766 147.08 160.374 144.633L160.374 144.633L160.374 144.632C160.496 144.139 160.584 143.787 160.634 143.61C160.914 142.633 161.234 140.995 161.563 139.093C161.566 139.122 161.57 139.15 161.573 139.178C162.552 147.008 163.5 158.067 163.5 165C163.5 170.247 167.753 174.5 173 174.5C178.247 174.5 182.5 170.247 182.5 165C182.5 156.933 181.448 144.992 180.427 136.822C180.376 136.418 180.319 135.943 180.254 135.407C179.715 130.946 178.659 122.208 176.733 114.262C175.669 109.874 174.184 105.032 172.013 101.082C170.184 97.7529 165.882 91.5001 158 91.5001C157.921 91.5001 157.842 91.5011 157.764 91.503ZM104.717 109.249C104.718 109.24 104.77 109.29 104.868 109.426C104.765 109.326 104.716 109.258 104.717 109.249Z" fill="url(#paint1_radial_1396_994)" fill-opacity="0.5"/>
</g>
<g filter="url(#filter3_iii_1396_994)">
<path d="M65 101C65 113 70.25 136 71.5 141C72.75 146 78.5584 165 87.5 165C96.4416 165 100.071 146 101.5 141C102.929 136 107.5 113 107.5 101" stroke="#171717" stroke-width="19" stroke-linecap="round" stroke-linejoin="round"/>
<path d="M65 101C65 113 70.25 136 71.5 141C72.75 146 78.5584 165 87.5 165C96.4416 165 100.071 146 101.5 141C102.929 136 107.5 113 107.5 101" stroke="url(#paint2_linear_1396_994)" stroke-width="19" stroke-linecap="round" stroke-linejoin="round"/>
</g>
<defs>
<filter id="filter0_iii_1396_994" x="55" y="62" width="23" height="27" filterUnits="userSpaceOnUse" color-interpolation-filters="sRGB">
<feFlood flood-opacity="0" result="BackgroundImageFix"/>
<feBlend mode="normal" in="SourceGraphic" in2="BackgroundImageFix" result="shape"/>
<feColorMatrix in="SourceAlpha" type="matrix" values="0 0 0 0 0 0 0 0 0 0 0 0 0 0 0 0 0 0 127 0" result="hardAlpha"/>
<feOffset dx="-1" dy="-3"/>
<feGaussianBlur stdDeviation="3"/>
<feComposite in2="hardAlpha" operator="arithmetic" k2="-1" k3="1"/>
<feColorMatrix type="matrix" values="0 0 0 0 0.134063 0 0 0 0 0.415553 0 0 0 0 0.595833 0 0 0 0.2 0"/>
<feBlend mode="normal" in2="shape" result="effect1_innerShadow_1396_994"/>
<feColorMatrix in="SourceAlpha" type="matrix" values="0 0 0 0 0 0 0 0 0 0 0 0 0 0 0 0 0 0 127 0" result="hardAlpha"/>
<feOffset dx="2" dy="4"/>
<feGaussianBlur stdDeviation="2"/>
<feComposite in2="hardAlpha" operator="arithmetic" k2="-1" k3="1"/>
<feColorMatrix type="matrix" values="0 0 0 0 0.652298 0 0 0 0 1 0 0 0 0 0.595833 0 0 0 0.2 0"/>
<feBlend mode="normal" in2="effect1_innerShadow_1396_994" result="effect2_innerShadow_1396_994"/>
<feColorMatrix in="SourceAlpha" type="matrix" values="0 0 0 0 0 0 0 0 0 0 0 0 0 0 0 0 0 0 127 0" result="hardAlpha"/>
<feOffset dx="-1"/>
<feGaussianBlur stdDeviation="1"/>
<feComposite in2="hardAlpha" operator="arithmetic" k2="-1" k3="1"/>
<feColorMatrix type="matrix" values="0 0 0 0 1 0 0 0 0 1 0 0 0 0 1 0 0 0 0.25 0"/>
<feBlend mode="normal" in2="effect2_innerShadow_1396_994" result="effect3_innerShadow_1396_994"/>
</filter>
<filter id="filter1_iii_1396_994" x="150" y="62" width="23" height="27" filterUnits="userSpaceOnUse" color-interpolation-filters="sRGB">
<feFlood flood-opacity="0" result="BackgroundImageFix"/>
<feBlend mode="normal" in="SourceGraphic" in2="BackgroundImageFix" result="shape"/>
<feColorMatrix in="SourceAlpha" type="matrix" values="0 0 0 0 0 0 0 0 0 0 0 0 0 0 0 0 0 0 127 0" result="hardAlpha"/>
<feOffset dx="-1" dy="-3"/>
<feGaussianBlur stdDeviation="3"/>
<feComposite in2="hardAlpha" operator="arithmetic" k2="-1" k3="1"/>
<feColorMatrix type="matrix" values="0 0 0 0 0.134063 0 0 0 0 0.415553 0 0 0 0 0.595833 0 0 0 0.2 0"/>
<feBlend mode="normal" in2="shape" result="effect1_innerShadow_1396_994"/>
<feColorMatrix in="SourceAlpha" type="matrix" values="0 0 0 0 0 0 0 0 0 0 0 0 0 0 0 0 0 0 127 0" result="hardAlpha"/>
<feOffset dx="2" dy="4"/>
<feGaussianBlur stdDeviation="2"/>
<feComposite in2="hardAlpha" operator="arithmetic" k2="-1" k3="1"/>
<feColorMatrix type="matrix" values="0 0 0 0 0.652298 0 0 0 0 1 0 0 0 0 0.595833 0 0 0 0.2 0"/>
<feBlend mode="normal" in2="effect1_innerShadow_1396_994" result="effect2_innerShadow_1396_994"/>
<feColorMatrix in="SourceAlpha" type="matrix" values="0 0 0 0 0 0 0 0 0 0 0 0 0 0 0 0 0 0 127 0" result="hardAlpha"/>
<feOffset dx="-1"/>
<feGaussianBlur stdDeviation="1"/>
<feComposite in2="hardAlpha" operator="arithmetic" k2="-1" k3="1"/>
<feColorMatrix type="matrix" values="0 0 0 0 1 0 0 0 0 1 0 0 0 0 1 0 0 0 0.25 0"/>
<feBlend mode="normal" in2="effect2_innerShadow_1396_994" result="effect3_innerShadow_1396_994"/>
</filter>
<filter id="filter2_iii_1396_994" x="97.5" y="88.499" width="87" height="90.001" filterUnits="userSpaceOnUse" color-interpolation-filters="sRGB">
<feFlood flood-opacity="0" result="BackgroundImageFix"/>
<feBlend mode="normal" in="SourceGraphic" in2="BackgroundImageFix" result="shape"/>
<feColorMatrix in="SourceAlpha" type="matrix" values="0 0 0 0 0 0 0 0 0 0 0 0 0 0 0 0 0 0 127 0" result="hardAlpha"/>
<feOffset dx="-1" dy="-3"/>
<feGaussianBlur stdDeviation="3"/>
<feComposite in2="hardAlpha" operator="arithmetic" k2="-1" k3="1"/>
<feColorMatrix type="matrix" values="0 0 0 0 0.134063 0 0 0 0 0.415553 0 0 0 0 0.595833 0 0 0 0.2 0"/>
<feBlend mode="normal" in2="shape" result="effect1_innerShadow_1396_994"/>
<feColorMatrix in="SourceAlpha" type="matrix" values="0 0 0 0 0 0 0 0 0 0 0 0 0 0 0 0 0 0 127 0" result="hardAlpha"/>
<feOffset dx="2" dy="4"/>
<feGaussianBlur stdDeviation="2"/>
<feComposite in2="hardAlpha" operator="arithmetic" k2="-1" k3="1"/>
<feColorMatrix type="matrix" values="0 0 0 0 0.652298 0 0 0 0 1 0 0 0 0 0.595833 0 0 0 0.2 0"/>
<feBlend mode="normal" in2="effect1_innerShadow_1396_994" result="effect2_innerShadow_1396_994"/>
<feColorMatrix in="SourceAlpha" type="matrix" values="0 0 0 0 0 0 0 0 0 0 0 0 0 0 0 0 0 0 127 0" result="hardAlpha"/>
<feOffset dx="-1"/>
<feGaussianBlur stdDeviation="1"/>
<feComposite in2="hardAlpha" operator="arithmetic" k2="-1" k3="1"/>
<feColorMatrix type="matrix" values="0 0 0 0 1 0 0 0 0 1 0 0 0 0 1 0 0 0 0.25 0"/>
<feBlend mode="normal" in2="effect2_innerShadow_1396_994" result="effect3_innerShadow_1396_994"/>
</filter>
<filter id="filter3_iii_1396_994" x="54.5" y="88.5" width="64.5" height="90" filterUnits="userSpaceOnUse" color-interpolation-filters="sRGB">
<feFlood flood-opacity="0" result="BackgroundImageFix"/>
<feBlend mode="normal" in="SourceGraphic" in2="BackgroundImageFix" result="shape"/>
<feColorMatrix in="SourceAlpha" type="matrix" values="0 0 0 0 0 0 0 0 0 0 0 0 0 0 0 0 0 0 127 0" result="hardAlpha"/>
<feOffset dx="-1" dy="-3"/>
<feGaussianBlur stdDeviation="3"/>
<feComposite in2="hardAlpha" operator="arithmetic" k2="-1" k3="1"/>
<feColorMatrix type="matrix" values="0 0 0 0 0.134063 0 0 0 0 0.415553 0 0 0 0 0.595833 0 0 0 0.2 0"/>
<feBlend mode="normal" in2="shape" result="effect1_innerShadow_1396_994"/>
<feColorMatrix in="SourceAlpha" type="matrix" values="0 0 0 0 0 0 0 0 0 0 0 0 0 0 0 0 0 0 127 0" result="hardAlpha"/>
<feOffset dx="2" dy="4"/>
<feGaussianBlur stdDeviation="2"/>
<feComposite in2="hardAlpha" operator="arithmetic" k2="-1" k3="1"/>
<feColorMatrix type="matrix" values="0 0 0 0 0.652298 0 0 0 0 1 0 0 0 0 0.595833 0 0 0 0.2 0"/>
<feBlend mode="normal" in2="effect1_innerShadow_1396_994" result="effect2_innerShadow_1396_994"/>
<feColorMatrix in="SourceAlpha" type="matrix" values="0 0 0 0 0 0 0 0 0 0 0 0 0 0 0 0 0 0 127 0" result="hardAlpha"/>
<feOffset dx="-1"/>
<feGaussianBlur stdDeviation="1"/>
<feComposite in2="hardAlpha" operator="arithmetic" k2="-1" k3="1"/>
<feColorMatrix type="matrix" values="0 0 0 0 1 0 0 0 0 1 0 0 0 0 1 0 0 0 0.25 0"/>
<feBlend mode="normal" in2="effect2_innerShadow_1396_994" result="effect3_innerShadow_1396_994"/>
</filter>
<linearGradient id="paint0_linear_1396_994" x1="57.5" y1="174.5" x2="182.5" y2="174.5" gradientUnits="userSpaceOnUse">
<stop stop-color="#90FF7E"/>
<stop offset="1" stop-color="#4AC8FF"/>
</linearGradient>
<radialGradient id="paint1_radial_1396_994" cx="0" cy="0" r="1" gradientUnits="userSpaceOnUse" gradientTransform="translate(103.5 104.5) rotate(7.12502) scale(20.1556 59.6394)">
<stop stop-color="#08582F"/>
<stop offset="1" stop-opacity="0"/>
</radialGradient>
<linearGradient id="paint2_linear_1396_994" x1="57" y1="165" x2="184.5" y2="165" gradientUnits="userSpaceOnUse">
<stop stop-color="#90FF7E"/>
<stop offset="1" stop-color="#4AC8FF"/>
</linearGradient>
</defs>
</svg>
