<svg width="25" height="24" viewBox="0 0 25 24" fill="none" xmlns="http://www.w3.org/2000/svg">
<g clip-path="url(#clip0_545_2833)">
<path d="M19.2271 12.7631C19.1991 9.73111 21.7734 8.25601 21.8911 8.18734C20.4332 6.11487 18.1735 5.8317 17.3794 5.80913C15.4815 5.61439 13.6405 6.91639 12.6737 6.91639C11.6876 6.91639 10.1988 5.82794 8.59422 5.85993C6.52939 5.89097 4.59772 7.05656 3.53829 8.86656C1.3519 12.5571 2.98253 17.9805 5.07726 20.9637C6.12511 22.4246 7.34953 24.0559 8.95219 23.9985C10.5201 23.9355 11.1058 23.0239 12.9979 23.0239C14.8726 23.0239 15.4226 23.9985 17.0571 23.9618C18.7398 23.9355 19.7993 22.4943 20.8105 21.0201C22.0214 19.3456 22.5077 17.6964 22.527 17.6118C22.4874 17.5986 19.2589 16.3973 19.2271 12.7631Z" fill="white"/>
<path d="M16.1395 3.84672C16.9828 2.81848 17.5598 1.41959 17.3996 0C16.1791 0.052682 14.6526 0.823156 13.7736 1.82882C12.996 2.715 12.3013 4.16752 12.4807 5.53349C13.8518 5.63321 15.2596 4.85897 16.1395 3.84672Z" fill="white"/>
</g>
<defs>
<clipPath id="clip0_545_2833">
<rect width="24" height="24" fill="white" transform="translate(0.5)"/>
</clipPath>
</defs>
</svg>
