<svg width="174" height="174" viewBox="0 0 174 174" fill="none" xmlns="http://www.w3.org/2000/svg">
<rect width="174" height="174" rx="21.75" fill="black"/>
<path d="M34.3182 142.6L29.9798 131.339H32.6594L35.9611 140.447H34.8605L38.21 131.339H40.8577L36.4715 142.6H34.3182ZM42.1798 142.6V131.339H44.684V142.6H42.1798ZM48.7667 137.958V136.108H51.1432C51.643 136.108 52.0258 135.981 52.2916 135.725C52.5681 135.47 52.7063 135.125 52.7063 134.689C52.7063 134.285 52.5734 133.95 52.3076 133.684C52.0417 133.418 51.6589 133.285 51.1592 133.285H48.7667V131.339H51.4463C52.1906 131.339 52.8446 131.483 53.4081 131.77C53.9717 132.046 54.413 132.434 54.732 132.934C55.051 133.434 55.2105 134.008 55.2105 134.657C55.2105 135.316 55.051 135.896 54.732 136.395C54.413 136.884 53.9664 137.267 53.3922 137.544C52.818 137.82 52.1427 137.958 51.3665 137.958H48.7667ZM46.8527 142.6V131.339H49.3568V142.6H46.8527ZM52.9775 142.6L49.4685 137.751L51.7653 137.129L55.9442 142.6H52.9775ZM59.425 142.6V131.499H61.9292V142.6H59.425ZM55.9001 133.524V131.339H65.4541V133.524H55.9001ZM71.32 142.775C70.3949 142.775 69.5761 142.579 68.8637 142.185C68.1619 141.792 67.6089 141.249 67.2049 140.558C66.8114 139.856 66.6147 139.059 66.6147 138.166V131.339H69.1348V138.309C69.1348 138.756 69.2305 139.144 69.4219 139.474C69.6133 139.803 69.8738 140.058 70.2035 140.239C70.5437 140.409 70.9159 140.494 71.32 140.494C71.7453 140.494 72.1175 140.409 72.4365 140.239C72.7555 140.058 73.0053 139.809 73.1861 139.49C73.3775 139.16 73.4732 138.772 73.4732 138.325V131.339H75.9933V138.182C75.9933 139.075 75.7966 139.867 75.4032 140.558C75.0097 141.249 74.4621 141.792 73.7603 142.185C73.0585 142.579 72.2451 142.775 71.32 142.775ZM76.7235 142.6L81.1895 131.339H83.4544L87.8726 142.6H85.2249L81.8435 133.253H82.7526L79.3234 142.6H76.7235ZM79.2596 140.558V138.517H85.4003V140.558H79.2596ZM89.0641 142.6V131.339H91.5682V142.6H89.0641ZM90.994 142.6V140.399H96.5606V142.6H90.994ZM100.918 142.6V131.339H102.704L107.138 138.246H106.229L110.647 131.339H112.449V142.6H109.945V135.566L110.392 135.678L107.505 140.175H105.846L102.975 135.678L103.406 135.566V142.6H100.918ZM114.609 142.6V131.339H117.113V142.6H114.609ZM116.523 142.6V140.431H122.696V142.6H116.523ZM116.523 137.895V135.805H122.137V137.895H116.523ZM116.523 133.492V131.339H122.616V133.492H116.523ZM124.422 142.6V131.339H126.926V142.6H124.422ZM126.336 142.6V140.431H132.509V142.6H126.336ZM126.336 137.895V135.805H131.95V137.895H126.336ZM126.336 133.492V131.339H132.429V133.492H126.336ZM136.652 142.6V131.499H139.156V142.6H136.652ZM133.127 133.524V131.339H142.681V133.524H133.127Z" fill="white"/>
<g filter="url(#filter0_iii_545_2760)">
<circle cx="47.8496" cy="44.2244" r="7.25" fill="#7FFF6A"/>
</g>
<g filter="url(#filter1_iii_545_2760)">
<circle cx="116.725" cy="44.2241" r="7.25" fill="#46B4DB"/>
</g>
<g filter="url(#filter2_iii_545_2760)">
<path fill-rule="evenodd" clip-rule="evenodd" d="M114.378 56.1889C110.9 56.0881 107.837 58.6285 107.362 62.1534L107.717 62.2013C107.717 62.2014 107.717 62.2014 107.717 62.2014C107.362 62.1535 107.361 62.1535 107.361 62.1536L107.361 62.1544L107.361 62.1577L107.359 62.1714L107.352 62.2265L107.322 62.4435C107.296 62.634 107.258 62.9144 107.21 63.2726C107.112 63.989 106.972 65.0163 106.801 66.2585C106.459 68.7437 105.994 72.0844 105.505 75.5128C105.014 78.9462 104.501 82.4453 104.062 85.2549C103.841 86.6626 103.644 87.8686 103.48 88.7942C103.332 89.6274 103.246 90.0337 103.221 90.1491L103.221 90.1492L103.221 90.1493L103.221 90.1495C103.215 90.1799 103.212 90.1899 103.215 90.1822C103.053 90.7488 102.887 91.4058 102.704 92.1314C102.199 94.1374 101.561 96.668 100.503 99.2645C100.073 100.323 99.655 101.161 99.2788 101.789C98.765 101.107 98.179 100.142 97.5757 98.8837C95.9048 95.3992 94.8312 91.2243 94.5588 89.045C94.5222 88.7522 94.4806 88.4082 94.4336 88.0194L94.4336 88.0194C94.0427 84.7848 93.2772 78.4502 91.8806 72.6891C91.1094 69.5081 90.033 65.9976 88.4592 63.1334C87.1332 60.7201 84.0141 56.1868 78.2995 56.1868C74.4956 56.1868 71.412 59.2705 71.412 63.0743C71.412 66.1965 73.4894 68.8334 76.3374 69.6783C76.3533 69.7067 76.3697 69.7361 76.3866 69.7668C77.0784 71.026 77.8145 73.1343 78.4933 75.9345C79.6823 80.8391 80.3497 86.3225 80.7527 89.6337L80.753 89.6359C80.8026 90.0431 80.8481 90.4173 80.8901 90.7536C81.3427 94.3743 82.8278 99.9869 85.1549 104.84C86.3202 107.27 87.8781 109.897 89.9248 112.016C91.9478 114.111 95.11 116.362 99.3245 116.362C99.3851 116.362 99.4456 116.361 99.5058 116.359C99.5661 116.361 99.6265 116.362 99.6872 116.362C104.135 116.362 107.275 113.824 109.145 111.617C111.018 109.407 112.334 106.737 113.261 104.459C114.766 100.764 115.83 96.4819 116.271 94.7078C116.359 94.3506 116.423 94.095 116.46 93.9665C116.662 93.2584 116.894 92.0706 117.133 90.692C117.135 90.7127 117.138 90.7332 117.14 90.7536C117.85 96.4303 118.537 104.448 118.537 109.474C118.537 113.278 121.621 116.362 125.425 116.362C129.228 116.362 132.312 113.278 132.312 109.474C132.312 103.626 131.549 94.9683 130.809 89.045C130.772 88.7522 130.731 88.4082 130.684 88.0194L130.684 88.0194C130.293 84.7847 129.527 78.4502 128.131 72.6891C127.36 69.5081 126.283 65.9976 124.709 63.1334C123.383 60.7201 120.264 56.1868 114.55 56.1868C114.492 56.1868 114.435 56.1875 114.378 56.1889ZM75.9195 69.0549C75.9203 69.0485 75.9575 69.0847 76.0286 69.183C75.9542 69.1106 75.9186 69.0614 75.9195 69.0549Z" fill="url(#paint0_linear_545_2760)"/>
</g>
<g filter="url(#filter3_iii_545_2760)">
<path d="M47.125 63.0745C47.125 71.7745 50.9313 88.4495 51.8375 92.0745C52.7437 95.6995 56.9548 109.474 63.4375 109.474C69.9202 109.474 72.5518 95.6995 73.5875 92.0745C74.6232 88.4495 77.9375 71.7745 77.9375 63.0745" stroke="#171717" stroke-width="13.775" stroke-linecap="round" stroke-linejoin="round"/>
<path d="M47.125 63.0745C47.125 71.7745 50.9313 88.4495 51.8375 92.0745C52.7437 95.6995 56.9548 109.474 63.4375 109.474C69.9202 109.474 72.5518 95.6995 73.5875 92.0745C74.6232 88.4495 77.9375 71.7745 77.9375 63.0745" stroke="url(#paint1_linear_545_2760)" stroke-width="13.775" stroke-linecap="round" stroke-linejoin="round"/>
</g>
<defs>
<filter id="filter0_iii_545_2760" x="39.8746" y="34.7994" width="16.675" height="19.575" filterUnits="userSpaceOnUse" color-interpolation-filters="sRGB">
<feFlood flood-opacity="0" result="BackgroundImageFix"/>
<feBlend mode="normal" in="SourceGraphic" in2="BackgroundImageFix" result="shape"/>
<feColorMatrix in="SourceAlpha" type="matrix" values="0 0 0 0 0 0 0 0 0 0 0 0 0 0 0 0 0 0 127 0" result="hardAlpha"/>
<feOffset dx="-0.725" dy="-2.175"/>
<feGaussianBlur stdDeviation="2.175"/>
<feComposite in2="hardAlpha" operator="arithmetic" k2="-1" k3="1"/>
<feColorMatrix type="matrix" values="0 0 0 0 0.134063 0 0 0 0 0.415553 0 0 0 0 0.595833 0 0 0 0.2 0"/>
<feBlend mode="normal" in2="shape" result="effect1_innerShadow_545_2760"/>
<feColorMatrix in="SourceAlpha" type="matrix" values="0 0 0 0 0 0 0 0 0 0 0 0 0 0 0 0 0 0 127 0" result="hardAlpha"/>
<feOffset dx="1.45" dy="2.9"/>
<feGaussianBlur stdDeviation="1.45"/>
<feComposite in2="hardAlpha" operator="arithmetic" k2="-1" k3="1"/>
<feColorMatrix type="matrix" values="0 0 0 0 0.652298 0 0 0 0 1 0 0 0 0 0.595833 0 0 0 0.2 0"/>
<feBlend mode="normal" in2="effect1_innerShadow_545_2760" result="effect2_innerShadow_545_2760"/>
<feColorMatrix in="SourceAlpha" type="matrix" values="0 0 0 0 0 0 0 0 0 0 0 0 0 0 0 0 0 0 127 0" result="hardAlpha"/>
<feOffset dx="-0.725"/>
<feGaussianBlur stdDeviation="0.725"/>
<feComposite in2="hardAlpha" operator="arithmetic" k2="-1" k3="1"/>
<feColorMatrix type="matrix" values="0 0 0 0 1 0 0 0 0 1 0 0 0 0 1 0 0 0 0.25 0"/>
<feBlend mode="normal" in2="effect2_innerShadow_545_2760" result="effect3_innerShadow_545_2760"/>
</filter>
<filter id="filter1_iii_545_2760" x="108.75" y="34.7991" width="16.675" height="19.575" filterUnits="userSpaceOnUse" color-interpolation-filters="sRGB">
<feFlood flood-opacity="0" result="BackgroundImageFix"/>
<feBlend mode="normal" in="SourceGraphic" in2="BackgroundImageFix" result="shape"/>
<feColorMatrix in="SourceAlpha" type="matrix" values="0 0 0 0 0 0 0 0 0 0 0 0 0 0 0 0 0 0 127 0" result="hardAlpha"/>
<feOffset dx="-0.725" dy="-2.175"/>
<feGaussianBlur stdDeviation="2.175"/>
<feComposite in2="hardAlpha" operator="arithmetic" k2="-1" k3="1"/>
<feColorMatrix type="matrix" values="0 0 0 0 0.134063 0 0 0 0 0.415553 0 0 0 0 0.595833 0 0 0 0.2 0"/>
<feBlend mode="normal" in2="shape" result="effect1_innerShadow_545_2760"/>
<feColorMatrix in="SourceAlpha" type="matrix" values="0 0 0 0 0 0 0 0 0 0 0 0 0 0 0 0 0 0 127 0" result="hardAlpha"/>
<feOffset dx="1.45" dy="2.9"/>
<feGaussianBlur stdDeviation="1.45"/>
<feComposite in2="hardAlpha" operator="arithmetic" k2="-1" k3="1"/>
<feColorMatrix type="matrix" values="0 0 0 0 0.652298 0 0 0 0 1 0 0 0 0 0.595833 0 0 0 0.2 0"/>
<feBlend mode="normal" in2="effect1_innerShadow_545_2760" result="effect2_innerShadow_545_2760"/>
<feColorMatrix in="SourceAlpha" type="matrix" values="0 0 0 0 0 0 0 0 0 0 0 0 0 0 0 0 0 0 127 0" result="hardAlpha"/>
<feOffset dx="-0.725"/>
<feGaussianBlur stdDeviation="0.725"/>
<feComposite in2="hardAlpha" operator="arithmetic" k2="-1" k3="1"/>
<feColorMatrix type="matrix" values="0 0 0 0 1 0 0 0 0 1 0 0 0 0 1 0 0 0 0.25 0"/>
<feBlend mode="normal" in2="effect2_innerShadow_545_2760" result="effect3_innerShadow_545_2760"/>
</filter>
<filter id="filter2_iii_545_2760" x="70.6871" y="54.011" width="63.0754" height="65.2508" filterUnits="userSpaceOnUse" color-interpolation-filters="sRGB">
<feFlood flood-opacity="0" result="BackgroundImageFix"/>
<feBlend mode="normal" in="SourceGraphic" in2="BackgroundImageFix" result="shape"/>
<feColorMatrix in="SourceAlpha" type="matrix" values="0 0 0 0 0 0 0 0 0 0 0 0 0 0 0 0 0 0 127 0" result="hardAlpha"/>
<feOffset dx="-0.725" dy="-2.175"/>
<feGaussianBlur stdDeviation="2.175"/>
<feComposite in2="hardAlpha" operator="arithmetic" k2="-1" k3="1"/>
<feColorMatrix type="matrix" values="0 0 0 0 0.134063 0 0 0 0 0.415553 0 0 0 0 0.595833 0 0 0 0.2 0"/>
<feBlend mode="normal" in2="shape" result="effect1_innerShadow_545_2760"/>
<feColorMatrix in="SourceAlpha" type="matrix" values="0 0 0 0 0 0 0 0 0 0 0 0 0 0 0 0 0 0 127 0" result="hardAlpha"/>
<feOffset dx="1.45" dy="2.9"/>
<feGaussianBlur stdDeviation="1.45"/>
<feComposite in2="hardAlpha" operator="arithmetic" k2="-1" k3="1"/>
<feColorMatrix type="matrix" values="0 0 0 0 0.652298 0 0 0 0 1 0 0 0 0 0.595833 0 0 0 0.2 0"/>
<feBlend mode="normal" in2="effect1_innerShadow_545_2760" result="effect2_innerShadow_545_2760"/>
<feColorMatrix in="SourceAlpha" type="matrix" values="0 0 0 0 0 0 0 0 0 0 0 0 0 0 0 0 0 0 127 0" result="hardAlpha"/>
<feOffset dx="-0.725"/>
<feGaussianBlur stdDeviation="0.725"/>
<feComposite in2="hardAlpha" operator="arithmetic" k2="-1" k3="1"/>
<feColorMatrix type="matrix" values="0 0 0 0 1 0 0 0 0 1 0 0 0 0 1 0 0 0 0.25 0"/>
<feBlend mode="normal" in2="effect2_innerShadow_545_2760" result="effect3_innerShadow_545_2760"/>
</filter>
<filter id="filter3_iii_545_2760" x="39.5123" y="54.012" width="46.7629" height="65.25" filterUnits="userSpaceOnUse" color-interpolation-filters="sRGB">
<feFlood flood-opacity="0" result="BackgroundImageFix"/>
<feBlend mode="normal" in="SourceGraphic" in2="BackgroundImageFix" result="shape"/>
<feColorMatrix in="SourceAlpha" type="matrix" values="0 0 0 0 0 0 0 0 0 0 0 0 0 0 0 0 0 0 127 0" result="hardAlpha"/>
<feOffset dx="-0.725" dy="-2.175"/>
<feGaussianBlur stdDeviation="2.175"/>
<feComposite in2="hardAlpha" operator="arithmetic" k2="-1" k3="1"/>
<feColorMatrix type="matrix" values="0 0 0 0 0.134063 0 0 0 0 0.415553 0 0 0 0 0.595833 0 0 0 0.2 0"/>
<feBlend mode="normal" in2="shape" result="effect1_innerShadow_545_2760"/>
<feColorMatrix in="SourceAlpha" type="matrix" values="0 0 0 0 0 0 0 0 0 0 0 0 0 0 0 0 0 0 127 0" result="hardAlpha"/>
<feOffset dx="1.45" dy="2.9"/>
<feGaussianBlur stdDeviation="1.45"/>
<feComposite in2="hardAlpha" operator="arithmetic" k2="-1" k3="1"/>
<feColorMatrix type="matrix" values="0 0 0 0 0.652298 0 0 0 0 1 0 0 0 0 0.595833 0 0 0 0.2 0"/>
<feBlend mode="normal" in2="effect1_innerShadow_545_2760" result="effect2_innerShadow_545_2760"/>
<feColorMatrix in="SourceAlpha" type="matrix" values="0 0 0 0 0 0 0 0 0 0 0 0 0 0 0 0 0 0 127 0" result="hardAlpha"/>
<feOffset dx="-0.725"/>
<feGaussianBlur stdDeviation="0.725"/>
<feComposite in2="hardAlpha" operator="arithmetic" k2="-1" k3="1"/>
<feColorMatrix type="matrix" values="0 0 0 0 1 0 0 0 0 1 0 0 0 0 1 0 0 0 0.25 0"/>
<feBlend mode="normal" in2="effect2_innerShadow_545_2760" result="effect3_innerShadow_545_2760"/>
</filter>
<linearGradient id="paint0_linear_545_2760" x1="71.4121" y1="116.362" x2="132.312" y2="116.362" gradientUnits="userSpaceOnUse">
<stop stop-color="#7FFF6A"/>
<stop offset="1" stop-color="#4AC8FF"/>
</linearGradient>
<linearGradient id="paint1_linear_545_2760" x1="41.325" y1="109.474" x2="133.762" y2="109.474" gradientUnits="userSpaceOnUse">
<stop stop-color="#90FF7E"/>
<stop offset="1" stop-color="#4AC8FF"/>
</linearGradient>
</defs>
</svg>
