<svg width="137" height="60" viewBox="0 0 137 60" fill="none" xmlns="http://www.w3.org/2000/svg">
<g clip-path="url(#clip0_545_2732)">
<path d="M34.1135 34.5866L30.0229 23.969H32.5494L35.6625 32.5563H34.6248L37.783 23.969H40.2795L36.1438 34.5866H34.1135ZM41.5261 34.5866V23.969H43.8873V34.5866H41.5261ZM47.7368 30.2102V28.4657H49.9777C50.4489 28.4657 50.8098 28.3454 51.0605 28.1047C51.3212 27.8641 51.4515 27.5383 51.4515 27.1272C51.4515 26.7462 51.3262 26.4304 51.0755 26.1797C50.8249 25.9291 50.4639 25.8038 49.9927 25.8038H47.7368V23.969H50.2634C50.9652 23.969 51.5818 24.1043 52.1132 24.375C52.6446 24.6357 53.0607 25.0017 53.3615 25.4729C53.6623 25.9441 53.8127 26.4855 53.8127 27.0971C53.8127 27.7187 53.6623 28.2652 53.3615 28.7364C53.0607 29.1976 52.6396 29.5585 52.0982 29.8192C51.5568 30.0799 50.9201 30.2102 50.1882 30.2102H47.7368ZM45.9321 34.5866V23.969H48.2933V34.5866H45.9321ZM51.7072 34.5866L48.3986 30.0147L50.5642 29.4282L54.5045 34.5866H51.7072ZM57.7865 34.5866V24.1194H60.1477V34.5866H57.7865ZM54.4629 26.0293V23.969H63.4713V26.0293H54.4629ZM69.0022 34.752C68.1299 34.752 67.3579 34.5666 66.6862 34.1956C66.0244 33.8246 65.5031 33.3133 65.1221 32.6616C64.7511 31.9999 64.5656 31.2479 64.5656 30.4057V23.969H66.9418V30.5411C66.9418 30.9622 67.0321 31.3281 67.2125 31.6389C67.393 31.9497 67.6386 32.1904 67.9494 32.3608C68.2703 32.5212 68.6212 32.6014 69.0022 32.6014C69.4032 32.6014 69.7541 32.5212 70.0549 32.3608C70.3557 32.1904 70.5913 31.9548 70.7618 31.654C70.9422 31.3432 71.0325 30.9772 71.0325 30.5561V23.969H73.4086V30.4208C73.4086 31.263 73.2232 32.0099 72.8522 32.6616C72.4812 33.3133 71.9649 33.8246 71.3032 34.1956C70.6414 34.5666 69.8745 34.752 69.0022 34.752ZM74.0972 34.5866L78.3081 23.969H80.4437L84.6095 34.5866H82.113L78.9247 25.7737H79.782L76.5485 34.5866H74.0972ZM76.4884 32.6616V30.7366H82.2785V32.6616H76.4884ZM85.733 34.5866V23.969H88.0941V34.5866H85.733ZM87.5527 34.5866V32.5112H92.8014V34.5866H87.5527ZM96.9095 34.5866V23.969H98.5939L102.775 30.4809H101.918L106.083 23.969H107.783V34.5866H105.422V27.9543L105.843 28.0596L103.121 32.3007H101.557L98.8496 28.0596L99.2556 27.9543V34.5866H96.9095ZM109.819 34.5866V23.969H112.18V34.5866H109.819ZM111.624 34.5866V32.5413H117.444V34.5866H111.624ZM111.624 30.1501V28.1799H116.918V30.1501H111.624ZM111.624 25.9993V23.969H117.369V25.9993H111.624ZM119.072 34.5866V23.969H121.433V34.5866H119.072ZM120.876 34.5866V32.5413H126.697V34.5866H120.876ZM120.876 30.1501V28.1799H126.17V30.1501H120.876ZM120.876 25.9993V23.969H126.621V25.9993H120.876ZM130.603 34.5866V24.1194H132.964V34.5866H130.603ZM127.279 26.0293V23.969H136.288V26.0293H127.279Z" fill="white"/>
<g filter="url(#filter0_iii_545_2732)">
<path d="M4.05897 20.9802C4.05897 22.0738 3.17241 22.9603 2.0788 22.9603C0.985183 22.9603 0.0986328 22.0738 0.0986328 20.9802C0.0986328 19.8866 0.985183 19 2.0788 19C3.17241 19 4.05897 19.8866 4.05897 20.9802Z" fill="#7FFF6A"/>
</g>
<g filter="url(#filter1_iii_545_2732)">
<path d="M22.8705 20.9802C22.8705 22.0738 21.9839 22.9603 20.8903 22.9603C19.7967 22.9603 18.9102 22.0738 18.9102 20.9802C18.9102 19.8866 19.7967 19 20.8903 19C21.9839 19 22.8705 19.8866 22.8705 20.9802Z" fill="#46B4DB"/>
</g>
<g filter="url(#filter2_iii_545_2732)">
<path fill-rule="evenodd" clip-rule="evenodd" d="M20.2499 24.2475C19.3 24.2199 18.4633 24.9138 18.3334 25.8765L18.4304 25.8896C18.4304 25.8896 18.4304 25.8896 18.4304 25.8896C18.3334 25.8766 18.3334 25.8766 18.3334 25.8766L18.3333 25.8768L18.3332 25.8777L18.3327 25.8815L18.3307 25.8965L18.3226 25.9558C18.3156 26.0078 18.3052 26.0844 18.2919 26.1822C18.2653 26.3779 18.2269 26.6585 18.1802 26.9977C18.0868 27.6765 17.96 28.589 17.8262 29.5253C17.6922 30.4631 17.5522 31.4188 17.4321 32.1862C17.3719 32.5706 17.318 32.9 17.2732 33.1528C17.2329 33.3804 17.2092 33.4914 17.2025 33.5229C17.2007 33.5313 17.2001 33.534 17.2008 33.5319C17.1565 33.6867 17.1113 33.8661 17.0613 34.0643C16.9232 34.6122 16.749 35.3034 16.4603 36.0125C16.3426 36.3016 16.2285 36.5305 16.1258 36.7019C15.9855 36.5157 15.8254 36.2521 15.6607 35.9086C15.2043 34.9568 14.9111 33.8166 14.8367 33.2213C14.8267 33.1414 14.8153 33.0474 14.8025 32.9413L14.8025 32.9412C14.6957 32.0578 14.4866 30.3276 14.1052 28.7541C13.8945 27.8853 13.6005 26.9265 13.1707 26.1442C12.8085 25.485 11.9566 24.2469 10.3958 24.2469C9.35687 24.2469 8.51465 25.0891 8.51465 26.1281C8.51465 26.9808 9.08205 27.701 9.8599 27.9318C9.86426 27.9395 9.86875 27.9476 9.87334 27.9559C10.0623 28.2999 10.2634 28.8757 10.4488 29.6405C10.7735 30.9801 10.9558 32.4778 11.0659 33.3821C11.0794 33.4935 11.0919 33.596 11.1034 33.688C11.227 34.6769 11.6326 36.2099 12.2682 37.5353C12.5865 38.199 13.012 38.9165 13.571 39.4953C14.1235 40.0674 14.9872 40.6823 16.1383 40.6823C16.1548 40.6823 16.1713 40.6821 16.1878 40.6816C16.2042 40.6821 16.2207 40.6823 16.2373 40.6823C17.4522 40.6823 18.3096 39.9891 18.8206 39.3863C19.3321 38.7828 19.6915 38.0534 19.9448 37.4313C20.3557 36.4221 20.6463 35.2525 20.7667 34.768L20.7667 34.768L20.7667 34.7678C20.791 34.6703 20.8083 34.6006 20.8183 34.5655C20.8736 34.3721 20.937 34.0476 21.0021 33.671C21.0028 33.6767 21.0035 33.6824 21.0042 33.688C21.198 35.2385 21.3857 37.4283 21.3857 38.8011C21.3857 39.84 22.228 40.6823 23.2669 40.6823C24.3058 40.6823 25.148 39.84 25.148 38.8011C25.148 37.2037 24.9397 34.8391 24.7375 33.2213C24.7275 33.1414 24.7161 33.0474 24.7033 32.9412C24.5965 32.0578 24.3875 30.3276 24.006 28.7541C23.7954 27.8853 23.5014 26.9265 23.0715 26.1442C22.7094 25.485 21.8575 24.2469 20.2966 24.2469C20.281 24.2469 20.2654 24.2471 20.2499 24.2475ZM9.74577 27.7615C9.746 27.7597 9.75616 27.7696 9.77556 27.7965C9.75524 27.7767 9.74554 27.7633 9.74577 27.7615Z" fill="url(#paint0_linear_545_2732)"/>
</g>
<g filter="url(#filter3_iii_545_2732)">
<path fill-rule="evenodd" clip-rule="evenodd" d="M1.88116 24.2473C2.92009 24.2473 3.76232 25.0896 3.76232 26.1285C3.76232 27.1255 3.99068 28.7062 4.28116 30.2637C4.56452 31.783 4.87801 33.1319 4.99326 33.5929C5.09905 34.0161 5.40727 35.0551 5.85897 35.9458C6.00561 36.2349 6.14691 36.467 6.27449 36.6423C6.35674 36.4961 6.44664 36.3107 6.53999 36.083C6.81794 35.4051 6.98909 34.7319 7.13633 34.1526C7.19284 33.9303 7.24583 33.7219 7.29999 33.5324C7.41144 33.1423 7.69465 31.8409 7.95367 30.2973C8.21358 28.7484 8.41571 27.1483 8.41571 26.1285C8.41571 25.0896 9.25793 24.2473 10.2969 24.2473C11.3358 24.2473 12.178 25.0896 12.178 26.1285C12.178 27.4849 11.9275 29.3501 11.6641 30.9199C11.3998 32.4951 11.089 33.966 10.9175 34.566C10.9009 34.6242 10.8759 34.7235 10.8429 34.8543C10.7021 35.4127 10.4166 36.5457 10.0211 37.5103C9.7696 38.1236 9.41162 38.8413 8.89521 39.434C8.36993 40.0369 7.51892 40.6827 6.33653 40.6827C5.18711 40.6827 4.32882 40.0692 3.78553 39.5146C3.23491 38.9526 2.81514 38.262 2.50353 37.6475C1.87562 36.4095 1.48501 35.0723 1.34327 34.5054C1.211 33.9763 0.880937 32.553 0.582623 30.9535C0.291431 29.3923 0 27.5077 0 26.1285C0 25.0896 0.842223 24.2473 1.88116 24.2473ZM6.57806 36.974C6.57807 36.9742 6.57548 36.9727 6.57028 36.9691C6.57546 36.9719 6.57806 36.9738 6.57806 36.974Z" fill="#171717"/>
<path fill-rule="evenodd" clip-rule="evenodd" d="M1.88116 24.2473C2.92009 24.2473 3.76232 25.0896 3.76232 26.1285C3.76232 27.1255 3.99068 28.7062 4.28116 30.2637C4.56452 31.783 4.87801 33.1319 4.99326 33.5929C5.09905 34.0161 5.40727 35.0551 5.85897 35.9458C6.00561 36.2349 6.14691 36.467 6.27449 36.6423C6.35674 36.4961 6.44664 36.3107 6.53999 36.083C6.81794 35.4051 6.98909 34.7319 7.13633 34.1526C7.19284 33.9303 7.24583 33.7219 7.29999 33.5324C7.41144 33.1423 7.69465 31.8409 7.95367 30.2973C8.21358 28.7484 8.41571 27.1483 8.41571 26.1285C8.41571 25.0896 9.25793 24.2473 10.2969 24.2473C11.3358 24.2473 12.178 25.0896 12.178 26.1285C12.178 27.4849 11.9275 29.3501 11.6641 30.9199C11.3998 32.4951 11.089 33.966 10.9175 34.566C10.9009 34.6242 10.8759 34.7235 10.8429 34.8543C10.7021 35.4127 10.4166 36.5457 10.0211 37.5103C9.7696 38.1236 9.41162 38.8413 8.89521 39.434C8.36993 40.0369 7.51892 40.6827 6.33653 40.6827C5.18711 40.6827 4.32882 40.0692 3.78553 39.5146C3.23491 38.9526 2.81514 38.262 2.50353 37.6475C1.87562 36.4095 1.48501 35.0723 1.34327 34.5054C1.211 33.9763 0.880937 32.553 0.582623 30.9535C0.291431 29.3923 0 27.5077 0 26.1285C0 25.0896 0.842223 24.2473 1.88116 24.2473ZM6.57806 36.974C6.57807 36.9742 6.57548 36.9727 6.57028 36.9691C6.57546 36.9719 6.57806 36.9738 6.57806 36.974Z" fill="url(#paint1_linear_545_2732)"/>
</g>
</g>
<defs>
<filter id="filter0_iii_545_2732" x="-0.116673" y="18.3541" width="4.60588" height="5.46747" filterUnits="userSpaceOnUse" color-interpolation-filters="sRGB">
<feFlood flood-opacity="0" result="BackgroundImageFix"/>
<feBlend mode="normal" in="SourceGraphic" in2="BackgroundImageFix" result="shape"/>
<feColorMatrix in="SourceAlpha" type="matrix" values="0 0 0 0 0 0 0 0 0 0 0 0 0 0 0 0 0 0 127 0" result="hardAlpha"/>
<feOffset dx="-0.215306" dy="-0.645919"/>
<feGaussianBlur stdDeviation="0.645919"/>
<feComposite in2="hardAlpha" operator="arithmetic" k2="-1" k3="1"/>
<feColorMatrix type="matrix" values="0 0 0 0 0.134063 0 0 0 0 0.415553 0 0 0 0 0.595833 0 0 0 0.2 0"/>
<feBlend mode="normal" in2="shape" result="effect1_innerShadow_545_2732"/>
<feColorMatrix in="SourceAlpha" type="matrix" values="0 0 0 0 0 0 0 0 0 0 0 0 0 0 0 0 0 0 127 0" result="hardAlpha"/>
<feOffset dx="0.430612" dy="0.861225"/>
<feGaussianBlur stdDeviation="0.430612"/>
<feComposite in2="hardAlpha" operator="arithmetic" k2="-1" k3="1"/>
<feColorMatrix type="matrix" values="0 0 0 0 0.652298 0 0 0 0 1 0 0 0 0 0.595833 0 0 0 0.2 0"/>
<feBlend mode="normal" in2="effect1_innerShadow_545_2732" result="effect2_innerShadow_545_2732"/>
<feColorMatrix in="SourceAlpha" type="matrix" values="0 0 0 0 0 0 0 0 0 0 0 0 0 0 0 0 0 0 127 0" result="hardAlpha"/>
<feOffset dx="-0.215306"/>
<feGaussianBlur stdDeviation="0.215306"/>
<feComposite in2="hardAlpha" operator="arithmetic" k2="-1" k3="1"/>
<feColorMatrix type="matrix" values="0 0 0 0 1 0 0 0 0 1 0 0 0 0 1 0 0 0 0.25 0"/>
<feBlend mode="normal" in2="effect2_innerShadow_545_2732" result="effect3_innerShadow_545_2732"/>
</filter>
<filter id="filter1_iii_545_2732" x="18.6949" y="18.3541" width="4.60588" height="5.46747" filterUnits="userSpaceOnUse" color-interpolation-filters="sRGB">
<feFlood flood-opacity="0" result="BackgroundImageFix"/>
<feBlend mode="normal" in="SourceGraphic" in2="BackgroundImageFix" result="shape"/>
<feColorMatrix in="SourceAlpha" type="matrix" values="0 0 0 0 0 0 0 0 0 0 0 0 0 0 0 0 0 0 127 0" result="hardAlpha"/>
<feOffset dx="-0.215306" dy="-0.645919"/>
<feGaussianBlur stdDeviation="0.645919"/>
<feComposite in2="hardAlpha" operator="arithmetic" k2="-1" k3="1"/>
<feColorMatrix type="matrix" values="0 0 0 0 0.134063 0 0 0 0 0.415553 0 0 0 0 0.595833 0 0 0 0.2 0"/>
<feBlend mode="normal" in2="shape" result="effect1_innerShadow_545_2732"/>
<feColorMatrix in="SourceAlpha" type="matrix" values="0 0 0 0 0 0 0 0 0 0 0 0 0 0 0 0 0 0 127 0" result="hardAlpha"/>
<feOffset dx="0.430612" dy="0.861225"/>
<feGaussianBlur stdDeviation="0.430612"/>
<feComposite in2="hardAlpha" operator="arithmetic" k2="-1" k3="1"/>
<feColorMatrix type="matrix" values="0 0 0 0 0.652298 0 0 0 0 1 0 0 0 0 0.595833 0 0 0 0.2 0"/>
<feBlend mode="normal" in2="effect1_innerShadow_545_2732" result="effect2_innerShadow_545_2732"/>
<feColorMatrix in="SourceAlpha" type="matrix" values="0 0 0 0 0 0 0 0 0 0 0 0 0 0 0 0 0 0 127 0" result="hardAlpha"/>
<feOffset dx="-0.215306"/>
<feGaussianBlur stdDeviation="0.215306"/>
<feComposite in2="hardAlpha" operator="arithmetic" k2="-1" k3="1"/>
<feColorMatrix type="matrix" values="0 0 0 0 1 0 0 0 0 1 0 0 0 0 1 0 0 0 0.25 0"/>
<feBlend mode="normal" in2="effect2_innerShadow_545_2732" result="effect3_innerShadow_545_2732"/>
</filter>
<filter id="filter2_iii_545_2732" x="8.29934" y="23.6008" width="17.2797" height="17.9428" filterUnits="userSpaceOnUse" color-interpolation-filters="sRGB">
<feFlood flood-opacity="0" result="BackgroundImageFix"/>
<feBlend mode="normal" in="SourceGraphic" in2="BackgroundImageFix" result="shape"/>
<feColorMatrix in="SourceAlpha" type="matrix" values="0 0 0 0 0 0 0 0 0 0 0 0 0 0 0 0 0 0 127 0" result="hardAlpha"/>
<feOffset dx="-0.215306" dy="-0.645919"/>
<feGaussianBlur stdDeviation="0.645919"/>
<feComposite in2="hardAlpha" operator="arithmetic" k2="-1" k3="1"/>
<feColorMatrix type="matrix" values="0 0 0 0 0.134063 0 0 0 0 0.415553 0 0 0 0 0.595833 0 0 0 0.2 0"/>
<feBlend mode="normal" in2="shape" result="effect1_innerShadow_545_2732"/>
<feColorMatrix in="SourceAlpha" type="matrix" values="0 0 0 0 0 0 0 0 0 0 0 0 0 0 0 0 0 0 127 0" result="hardAlpha"/>
<feOffset dx="0.430612" dy="0.861225"/>
<feGaussianBlur stdDeviation="0.430612"/>
<feComposite in2="hardAlpha" operator="arithmetic" k2="-1" k3="1"/>
<feColorMatrix type="matrix" values="0 0 0 0 0.652298 0 0 0 0 1 0 0 0 0 0.595833 0 0 0 0.2 0"/>
<feBlend mode="normal" in2="effect1_innerShadow_545_2732" result="effect2_innerShadow_545_2732"/>
<feColorMatrix in="SourceAlpha" type="matrix" values="0 0 0 0 0 0 0 0 0 0 0 0 0 0 0 0 0 0 127 0" result="hardAlpha"/>
<feOffset dx="-0.215306"/>
<feGaussianBlur stdDeviation="0.215306"/>
<feComposite in2="hardAlpha" operator="arithmetic" k2="-1" k3="1"/>
<feColorMatrix type="matrix" values="0 0 0 0 1 0 0 0 0 1 0 0 0 0 1 0 0 0 0.25 0"/>
<feBlend mode="normal" in2="effect2_innerShadow_545_2732" result="effect3_innerShadow_545_2732"/>
</filter>
<filter id="filter3_iii_545_2732" x="-0.215306" y="23.6014" width="12.8237" height="17.9425" filterUnits="userSpaceOnUse" color-interpolation-filters="sRGB">
<feFlood flood-opacity="0" result="BackgroundImageFix"/>
<feBlend mode="normal" in="SourceGraphic" in2="BackgroundImageFix" result="shape"/>
<feColorMatrix in="SourceAlpha" type="matrix" values="0 0 0 0 0 0 0 0 0 0 0 0 0 0 0 0 0 0 127 0" result="hardAlpha"/>
<feOffset dx="-0.215306" dy="-0.645919"/>
<feGaussianBlur stdDeviation="0.645919"/>
<feComposite in2="hardAlpha" operator="arithmetic" k2="-1" k3="1"/>
<feColorMatrix type="matrix" values="0 0 0 0 0.134063 0 0 0 0 0.415553 0 0 0 0 0.595833 0 0 0 0.2 0"/>
<feBlend mode="normal" in2="shape" result="effect1_innerShadow_545_2732"/>
<feColorMatrix in="SourceAlpha" type="matrix" values="0 0 0 0 0 0 0 0 0 0 0 0 0 0 0 0 0 0 127 0" result="hardAlpha"/>
<feOffset dx="0.430612" dy="0.861225"/>
<feGaussianBlur stdDeviation="0.430612"/>
<feComposite in2="hardAlpha" operator="arithmetic" k2="-1" k3="1"/>
<feColorMatrix type="matrix" values="0 0 0 0 0.652298 0 0 0 0 1 0 0 0 0 0.595833 0 0 0 0.2 0"/>
<feBlend mode="normal" in2="effect1_innerShadow_545_2732" result="effect2_innerShadow_545_2732"/>
<feColorMatrix in="SourceAlpha" type="matrix" values="0 0 0 0 0 0 0 0 0 0 0 0 0 0 0 0 0 0 127 0" result="hardAlpha"/>
<feOffset dx="-0.215306"/>
<feGaussianBlur stdDeviation="0.215306"/>
<feComposite in2="hardAlpha" operator="arithmetic" k2="-1" k3="1"/>
<feColorMatrix type="matrix" values="0 0 0 0 1 0 0 0 0 1 0 0 0 0 1 0 0 0 0.25 0"/>
<feBlend mode="normal" in2="effect2_innerShadow_545_2732" result="effect3_innerShadow_545_2732"/>
</filter>
<linearGradient id="paint0_linear_545_2732" x1="8.51465" y1="40.6823" x2="25.148" y2="40.6823" gradientUnits="userSpaceOnUse">
<stop stop-color="#7FFF6A"/>
<stop offset="1" stop-color="#4AC8FF"/>
</linearGradient>
<linearGradient id="paint1_linear_545_2732" x1="0.297025" y1="38.8016" x2="25.5441" y2="38.8016" gradientUnits="userSpaceOnUse">
<stop stop-color="#90FF7E"/>
<stop offset="1" stop-color="#4AC8FF"/>
</linearGradient>
<clipPath id="clip0_545_2732">
<rect width="137" height="60" fill="white"/>
</clipPath>
</defs>
</svg>
