<svg width="117" height="24" viewBox="0 0 117 24" fill="none" xmlns="http://www.w3.org/2000/svg">
<path d="M15.016 0V2.73419H3.31609V10.6699L13.626 10.6416V13.3758H3.31609V23.2924H0V0.00472684L15.016 0Z" fill="white"/>
<path d="M17.5186 23.2924V0H20.6469V23.2853L17.5186 23.2924Z" fill="white"/>
<path d="M37.997 23.4529V20.862C37.4257 21.7295 36.6258 22.4472 35.6729 22.9473C34.4909 23.5902 33.138 23.9105 31.7691 23.8714C30.4255 23.8933 29.1009 23.5738 27.9382 22.9473C26.8184 22.3304 25.9146 21.4256 25.3357 20.3419C24.6885 19.1145 24.369 17.7604 24.404 16.3939V6.41496H27.7066V15.8496C27.7066 17.5575 28.1282 18.8727 28.9714 19.7952C29.8146 20.7177 30.9849 21.1797 32.4822 21.1813C33.4914 21.1921 34.4783 20.905 35.3008 20.3613C36.149 19.8003 36.8282 19.0465 37.2735 18.1719C37.7543 17.2535 38.001 16.2444 37.9944 15.223V6.40527H41.2944V23.4432L37.997 23.4529Z" fill="white"/>
<path d="M49.3129 22.6901C47.9876 21.9185 46.9036 20.8028 46.1798 19.4653C45.4359 18.0363 45.0479 16.4536 45.0479 14.848C45.0479 13.2423 45.4359 11.6596 46.1798 10.2306C46.9014 8.88891 47.9857 7.76952 49.3129 6.99598C50.6876 6.22735 52.2415 5.82324 53.8226 5.82324C55.4036 5.82324 56.9576 6.22735 58.3322 6.99598C59.6569 7.76811 60.7366 8.8882 61.4504 10.2306C62.2057 11.6548 62.5888 13.2417 62.5651 14.848C62.5724 15.2698 62.5525 15.6917 62.5055 16.111H48.1982C48.3119 17.5182 48.9482 18.8349 49.9857 19.8098C50.4964 20.2879 51.0983 20.6619 51.7566 20.9101C52.4149 21.1584 53.1166 21.276 53.8213 21.2561C54.89 21.2776 55.947 21.0339 56.8948 20.5476C57.6884 20.1696 58.3294 19.5397 58.7146 18.7593H61.9246C61.4154 20.2878 60.3768 21.5917 58.9901 22.4434C57.4503 23.4157 55.6505 23.9134 53.8213 23.8726C52.2368 23.8924 50.6772 23.4833 49.3129 22.6901ZM57.6793 9.85922C56.615 8.94013 55.2473 8.43335 53.8313 8.43335C52.4152 8.43335 51.0475 8.94013 49.9832 9.85922C48.9483 10.8414 48.3173 12.1642 48.2106 13.5751H59.4891C59.3599 12.1625 58.7174 10.8432 57.6793 9.85922Z" fill="white"/>
<path d="M69.6229 6.24261V8.83422C70.1942 7.96647 70.9941 7.24852 71.947 6.74832C73.1297 6.10694 74.4824 5.78753 75.8508 5.82641C77.1933 5.8052 78.5166 6.12385 79.6792 6.74832C80.7986 7.36689 81.7022 8.27264 82.2817 9.35688C82.9267 10.5852 83.2453 11.9395 83.2108 13.306V23.2853H79.9082V13.8481C79.9082 12.1397 79.4866 10.8241 78.6434 9.90133C77.8002 8.97858 76.6307 8.5164 75.1351 8.51479C74.1255 8.5039 73.138 8.79022 72.314 9.33271C71.4665 9.89484 70.7881 10.6496 70.3439 11.525C69.8615 12.4432 69.6147 13.453 69.6229 14.4748V23.2926H66.3203V6.24988L69.6229 6.24261Z" fill="white"/>
<path d="M96.3483 9.25124H92.5642V23.2923H89.4961V9.25124H85.7168V6.59618H89.501V2.3291H92.569V6.59618H96.3532L96.3483 9.25124Z" fill="white"/>
<path d="M107.758 2.73475V23.2924H104.375V2.73475H95.1016V0H117V2.73475H107.758Z" fill="white"/>
</svg>
