<svg width="56" height="57" viewBox="0 0 56 57" fill="none" xmlns="http://www.w3.org/2000/svg">
<g clip-path="url(#clip0_545_2805)">
<circle cx="28" cy="28.875" r="28" fill="#31373A"/>
<path d="M23.4038 29.3752C23.4038 27.1133 25.238 25.2792 27.5012 25.2792C29.7644 25.2792 31.5996 27.1133 31.5996 29.3752C31.5996 31.637 29.7644 33.4711 27.5012 33.4711C25.238 33.4711 23.4038 31.637 23.4038 29.3752ZM21.1883 29.3752C21.1883 32.8597 24.0146 35.6843 27.5012 35.6843C30.9878 35.6843 33.8141 32.8597 33.8141 29.3752C33.8141 25.8906 30.9878 23.066 27.5012 23.066C24.0146 23.066 21.1883 25.8906 21.1883 29.3752ZM32.5887 22.8159C32.5886 23.1075 32.675 23.3926 32.837 23.6351C32.999 23.8777 33.2294 24.0667 33.4989 24.1784C33.7684 24.2901 34.065 24.3195 34.3512 24.2627C34.6374 24.2059 34.9004 24.0656 35.1068 23.8595C35.3132 23.6533 35.4538 23.3907 35.5108 23.1047C35.5679 22.8187 35.5388 22.5222 35.4272 22.2528C35.3157 21.9833 35.1267 21.753 34.8841 21.5909C34.6416 21.4288 34.3564 21.3422 34.0646 21.3421H34.064C33.6729 21.3422 33.2978 21.4976 33.0212 21.7739C32.7446 22.0502 32.589 22.425 32.5887 22.8159ZM22.5343 39.3763C21.3357 39.3218 20.6842 39.1222 20.2513 38.9536C19.6773 38.7303 19.2677 38.4643 18.8372 38.0346C18.4066 37.6048 18.14 37.1959 17.9175 36.6223C17.7488 36.1898 17.5491 35.5385 17.4946 34.3406C17.435 33.0455 17.4231 32.6564 17.4231 29.3753C17.4231 26.0941 17.436 25.7061 17.4946 24.4099C17.5492 23.212 17.7503 22.562 17.9175 22.1282C18.141 21.5546 18.4072 21.1453 18.8372 20.7149C19.2672 20.2846 19.6763 20.0182 20.2513 19.7959C20.684 19.6272 21.3357 19.4277 22.5343 19.3732C23.8302 19.3137 24.2195 19.3018 27.5012 19.3018C30.7828 19.3018 31.1725 19.3146 32.4695 19.3732C33.6681 19.4278 34.3185 19.6288 34.7526 19.7959C35.3266 20.0182 35.7361 20.2852 36.1667 20.7149C36.5973 21.1447 36.8628 21.5546 37.0863 22.1282C37.2551 22.5607 37.4547 23.212 37.5092 24.4099C37.5688 25.7061 37.5807 26.0941 37.5807 29.3753C37.5807 32.6564 37.5688 33.0444 37.5092 34.3406C37.4546 35.5385 37.254 36.1896 37.0863 36.6223C36.8628 37.1959 36.5967 37.6052 36.1667 38.0346C35.7367 38.4639 35.3266 38.7303 34.7526 38.9536C34.3198 39.1223 33.6681 39.3219 32.4695 39.3763C31.1736 39.4359 30.7843 39.4478 27.5012 39.4478C24.2181 39.4478 23.8299 39.4359 22.5343 39.3763ZM22.4326 17.1628C21.1238 17.2224 20.2294 17.4298 19.4484 17.7335C18.6396 18.0471 17.9548 18.4679 17.2706 19.1507C16.5863 19.8334 16.1664 20.5188 15.8525 21.3272C15.5486 22.1083 15.3411 23.0016 15.2815 24.3096C15.2209 25.6196 15.207 26.0385 15.207 29.3752C15.207 32.7119 15.2209 33.1307 15.2815 34.4408C15.3411 35.7489 15.5486 36.6421 15.8525 37.4231C16.1664 38.231 16.5864 38.9172 17.2706 39.5996C17.9547 40.2821 18.6396 40.7023 19.4484 41.0168C20.2309 41.3206 21.1238 41.528 22.4326 41.5875C23.7441 41.6471 24.1625 41.6619 27.5012 41.6619C30.8399 41.6619 31.259 41.6481 32.5698 41.5875C33.8787 41.528 34.7724 41.3206 35.554 41.0168C36.3623 40.7023 37.0475 40.2824 37.7318 39.5996C38.416 38.9169 38.8351 38.231 39.1498 37.4231C39.4538 36.6421 39.6623 35.7488 39.7209 34.4408C39.7805 33.1297 39.7944 32.7119 39.7944 29.3752C39.7944 26.0385 39.7805 25.6196 39.7209 24.3096C39.6613 23.0015 39.4538 22.1078 39.1498 21.3272C38.8351 20.5193 38.415 19.8345 37.7318 19.1507C37.0486 18.4669 36.3623 18.0471 35.5549 17.7335C34.7724 17.4298 33.8786 17.2214 32.5708 17.1628C31.26 17.1032 30.8409 17.0884 27.5022 17.0884C24.1635 17.0884 23.7441 17.1022 22.4326 17.1628Z" fill="#70747B"/>
</g>
<defs>
<clipPath id="clip0_545_2805">
<rect width="56" height="56" fill="white" transform="translate(0 0.875)"/>
</clipPath>
</defs>
</svg>
