<svg width="56" height="57" viewBox="0 0 56 57" fill="none" xmlns="http://www.w3.org/2000/svg">
<g clip-path="url(#clip0_545_2809)">
<circle cx="28" cy="28.875" r="28" fill="#31373A"/>
<path d="M16.3213 18.9571C16.3213 17.9849 17.1352 17.1958 18.1385 17.1958H39.0924C40.0961 17.1958 40.9096 17.9849 40.9096 18.9571V40.0231C40.9096 40.9956 40.0961 41.7841 39.0924 41.7841H18.1385C17.1353 41.7841 16.3213 40.9957 16.3213 40.0234V18.9568V18.9571Z" fill="#70747B"/>
<path d="M23.7928 37.7732V26.7034H20.1134V37.7732H23.7932H23.7928ZM21.9538 25.1923C23.2367 25.1923 24.0353 24.3423 24.0353 23.28C24.0113 22.1935 23.2367 21.3672 21.9782 21.3672C20.7189 21.3672 19.8965 22.1935 19.8965 23.2799C19.8965 24.3422 20.6948 25.1922 21.9297 25.1922H21.9535L21.9538 25.1923ZM25.8294 37.7732H29.5085V31.592C29.5085 31.2616 29.5325 30.9303 29.6297 30.6943C29.8956 30.033 30.501 29.3485 31.5176 29.3485C32.8487 29.3485 33.3814 30.3635 33.3814 31.8518V37.7732H37.0605V31.4261C37.0605 28.0261 35.2455 26.4439 32.8248 26.4439C30.8402 26.4439 29.9686 27.5532 29.4843 28.3087H29.5088V26.7038H25.8296C25.8776 27.7423 25.8293 37.7735 25.8293 37.7735L25.8294 37.7732Z" fill="#31373A"/>
</g>
<defs>
<clipPath id="clip0_545_2809">
<rect width="56" height="56" fill="white" transform="translate(0 0.875)"/>
</clipPath>
</defs>
</svg>
