<svg width="56" height="57" viewBox="0 0 56 57" fill="none" xmlns="http://www.w3.org/2000/svg">
<g clip-path="url(#clip0_545_2813)">
<circle cx="28" cy="28.875" r="28" fill="#31373A"/>
<path d="M40.1155 22.6855C39.8217 21.5809 38.9525 20.7095 37.8467 20.4109C35.8473 19.875 27.825 19.875 27.825 19.875C27.825 19.875 19.8068 19.875 17.8033 20.4109C16.7016 20.7055 15.8324 21.5768 15.5345 22.6855C15 24.69 15 28.875 15 28.875C15 28.875 15 33.06 15.5345 35.0645C15.8283 36.1691 16.6975 37.0405 17.8033 37.3391C19.8068 37.875 27.825 37.875 27.825 37.875C27.825 37.875 35.8473 37.875 37.8467 37.3391C38.9484 37.0445 39.8176 36.1732 40.1155 35.0645C40.65 33.06 40.65 28.875 40.65 28.875C40.65 28.875 40.65 24.69 40.1155 22.6855Z" fill="#70747B"/>
<path d="M25.2624 32.7327L31.9259 28.875L25.2624 25.0173V32.7327Z" fill="#70747B"/>
<path d="M25 32.5905L31.6635 28.7327L25 24.875V32.5905Z" fill="#31373A"/>
</g>
<defs>
<clipPath id="clip0_545_2813">
<rect width="56" height="56" fill="white" transform="translate(0 0.875)"/>
</clipPath>
</defs>
</svg>
